<svg width="164" height="40" viewBox="0 0 164 40" fill="none" xmlns="http://www.w3.org/2000/svg">
<path d="M6.45534 23.5363C6.2206 22.2418 6.04455 20.9473 6.04455 19.4763C6.04455 10.8855 10.798 5.29566 17.8989 5.29566C22.7697 5.29566 25.9387 7.06088 27.758 10.9444L33.6851 9.70871C31.103 3.11855 25.7627 0 17.7815 0C7.15956 0 0 7.82581 0 19.4174C0 21.3592 0.176055 23.1244 0.528164 24.8308L6.45534 23.5363Z" fill="#001B61"></path>
<path d="M17.4377 18.1253V23.3587L24.9812 23.1235L25.8063 23.9468L13.1356 36.2954L16.8484 40L29.2244 27.3573L29.9906 28.1218L29.7548 35.6486H34.9999V18.1253H17.4377Z" fill="#1375FA"></path>
<path d="M47.4105 29.0445L50.2841 28.3317C51.0465 29.995 52.7471 31.0049 54.8583 31.0049C57.9665 31.0049 59.7258 29.4604 59.7258 25.4802V24.1139C58.8461 26.4901 56.6176 27.3812 54.2132 27.3812C50.2841 27.3812 47 24.7673 47 19.4802C47 14.2525 50.2841 11.5792 54.1546 11.5792C56.6176 11.5792 58.8461 12.4703 59.7258 14.9059V11.8762H62.7753V25.0049C62.7753 30.9455 60.019 33.5 54.8583 33.5C51.2224 33.4406 48.4661 31.8366 47.4105 29.0445ZM59.8431 19.4802C59.8431 16.0941 57.9078 14.0148 54.9756 14.0148C52.102 14.0148 50.1081 16.0941 50.1081 19.4802C50.1081 22.9257 52.0434 25.0049 54.9756 25.0049C57.8492 24.9455 59.8431 22.8663 59.8431 19.4802Z" fill="#262626"></path>
<path d="M65.9304 19.9154C65.9304 14.158 69.845 11.5792 73.8181 11.5792C77.7911 11.5792 81.7057 14.0981 81.7057 19.9154C81.7057 25.7328 77.7911 28.3116 73.8181 28.3116C69.845 28.3116 65.9304 25.7328 65.9304 19.9154ZM78.6675 19.9154C78.6675 16.437 76.681 14.278 73.8181 14.278C70.9551 14.278 68.9686 16.377 68.9686 19.9154C68.9686 23.4538 70.8967 25.6129 73.8181 25.6129C76.7394 25.6129 78.6675 23.4538 78.6675 19.9154Z" fill="#262626"></path>
<path d="M84.8606 19.9154C84.8606 14.3979 88.1447 11.5792 92.0152 11.5792C94.4782 11.5792 96.6481 12.8386 97.5864 14.9977V11.8791H100.636V27.8318H97.5864V24.8332C96.7067 26.9922 94.4782 28.2517 92.0738 28.2517C88.1447 28.3116 84.8606 25.4929 84.8606 19.9154ZM97.645 19.9154C97.645 16.437 95.6511 14.278 92.7189 14.278C89.8453 14.278 87.8514 16.377 87.8514 19.9154C87.8514 23.4538 89.8453 25.6128 92.7776 25.6128C95.6511 25.6128 97.645 23.4538 97.645 19.9154Z" fill="#262626"></path>
<path d="M103.791 11.9445H106.841V14.9891C107.662 12.9188 109.773 11.5792 112.412 11.5792C116.106 11.5792 119.566 14.1366 119.566 20.0431C119.566 25.8886 116.048 28.446 112.353 28.446C109.714 28.446 107.662 27.1064 106.841 25.0361V33.5H103.791V11.9445ZM116.517 20.0431C116.517 16.4505 114.582 14.2584 111.649 14.2584C108.717 14.2584 106.723 16.3896 106.723 20.0431C106.723 23.6356 108.717 25.7668 111.591 25.7668C114.582 25.7668 116.517 23.5747 116.517 20.0431Z" fill="#262626"></path>
<path d="M122.721 8.19553C122.721 7.10555 123.438 6.5 124.43 6.5C125.368 6.5 126.139 7.10555 126.139 8.19553C126.139 9.22496 125.368 9.89106 124.43 9.89106C123.438 9.89106 122.721 9.22496 122.721 8.19553ZM122.997 12.2527H125.864V28.4208H122.997V12.2527Z" fill="#262626"></path>
<path d="M129.294 20.3096C129.294 15.2221 132.684 11.5792 137.429 11.5792C141.557 11.5792 144.022 13.5263 145.07 17.2948L142.297 17.8601C141.496 15.4733 139.955 14.3428 137.552 14.3428C134.532 14.3428 132.499 16.7295 132.499 20.2468C132.499 23.7641 134.594 26.1508 137.552 26.1508C139.77 26.1508 141.496 24.8319 142.235 22.6335L145.008 23.1988C144.145 26.7789 141.372 28.9144 137.429 28.9144C132.684 29.04 129.294 25.3971 129.294 20.3096Z" fill="#262626"></path>
<path d="M148.225 19.998C148.225 15.0315 151.493 11.5792 156.247 11.5792C161.298 11.5792 164.328 15.3949 163.972 20.7853H151.374C151.493 23.9348 153.394 25.6912 156.484 25.6912C158.683 25.6912 160.169 24.9039 160.941 23.3897L163.793 23.8137C162.545 26.7814 160.05 28.3561 156.425 28.3561C151.433 28.4167 148.225 25.0856 148.225 19.998ZM161.06 18.3627C160.822 15.8189 159.099 14.123 156.306 14.123C153.632 14.123 151.79 15.516 151.433 18.3627H161.06Z" fill="#262626"></path>
</svg>