<svg width="24" height="28" viewBox="0 0 24 28" fill="none" xmlns="http://www.w3.org/2000/svg">
<path d="M4.42652 16.4754C4.26556 15.5692 4.14483 14.6631 4.14483 13.6334C4.14483 7.61986 7.40436 3.70696 12.2735 3.70696C15.6135 3.70696 17.7866 4.94262 19.034 7.66105L23.0984 6.7961C21.3278 2.18299 17.6658 0 12.193 0C4.90941 0 0 5.47806 0 13.5922C0 14.9514 0.120723 16.1871 0.36217 17.3815L4.42652 16.4754Z" fill="#001B61"></path>
<path d="M11.9571 12.6877V16.3511L17.1298 16.1865L17.6956 16.7628L9.00708 25.4068L11.553 28L20.0395 19.1502L20.5648 19.6853L20.4032 24.954H23.9998V12.6877H11.9571Z" fill="#1375FA"></path>
</svg>